<svg xmlns="http://www.w3.org/2000/svg" width="880" height="250" viewBox="0 0 880 250" role="img" aria-label="MCP connector. Before: HR data sat behind a web UI, away from the AI assistants people already use. After: 30+ tools in Claude and ChatGPT, with the same access as the site.">
<defs><clipPath id="r"><rect width="880" height="250" rx="12"/></clipPath></defs>
<g clip-path="url(#r)">
  <rect width="880" height="250" fill="#f6f4f0"/>
  <rect x="480" y="0" width="400" height="250" fill="#ece8e1"/>
  <g transform="translate(796 24) scale(0.5)"><path fill="#b9770e" fill-rule="evenodd" d="M22.73 0 H77.27 A22.73 22.73 0 0 1 100 22.73 V77.27 A22.73 22.73 0 0 1 77.27 100 H22.73 A22.73 22.73 0 0 1 0 77.27 V22.73 A22.73 22.73 0 0 1 22.73 0 Z M100 55.3 A48.18 48.18 0 0 1 65.45 9.09 H57.27 A48.18 48.18 0 0 1 9.09 57.27 V65.45 A48.18 48.18 0 0 1 55.3 100 H67.42 A48.18 48.18 0 0 1 100 67.42 Z"/></g>
  <g font-family="-apple-system,Segoe UI,Helvetica,Arial,sans-serif">
    <text x="40" y="54" fill="#1f1b18" font-size="24" font-weight="700">MCP connector</text>
    <text x="40" y="96" fill="#7d746b" font-size="12" font-weight="600" letter-spacing="2">BEFORE</text>
    <g fill="#4b443e" font-size="17"><text x="40" y="124">HR data sat behind a web UI,</text><text x="40" y="148">away from the AI assistants</text><text x="40" y="172">people already use.</text></g>
    <circle cx="480" cy="150" r="20" fill="#f6f4f0" stroke="#b9770e" stroke-width="2"/>
    <path d="M471 150h16m-6-6 6 6-6 6" stroke="#b9770e" stroke-width="2" fill="none" stroke-linecap="round" stroke-linejoin="round"/>
    <text x="520" y="96" fill="#b9770e" font-size="12" font-weight="600" letter-spacing="2">AFTER</text>
    <text x="520" y="160" fill="#1f1b18" font-size="56" font-weight="700">30+</text>
    <g fill="#4b443e" font-size="15"><text x="520" y="190">tools in Claude and ChatGPT,</text><text x="520" y="212">with the same access as the site.</text></g>
  </g>
</g>
<rect x=".5" y=".5" width="879" height="249" rx="11.5" fill="none" stroke="#ddd6cc"/>
</svg>
